<svg xmlns="http://www.w3.org/2000/svg" viewBox="0 0 1000 1000"><defs><style>.cls-1{fill:#fff;}</style></defs><g id="Layer_2" data-name="Layer 2"><polygon class="cls-1" points="499.5 88.5 87.5 500.5 344 757 445.25 655.75 347.75 558.25 347.5 558.5 293 504 293.25 503.75 293 503.5 347.5 449 347.75 449.25 445.25 351.75 445 351.5 499.5 297 499.75 297.25 500 297 554.5 351.5 554.25 351.75 651.75 449.25 652 449 706.5 503.5 706.25 503.75 706.5 504 652 558.5 651.75 558.25 554.25 655.75 554.5 656 500 710.5 499.75 710.25 398.5 811.5 499.5 912.5 911.5 500.5 499.5 88.5"/><rect class="cls-1" x="430.81" y="434.81" width="137.89" height="137.89" transform="translate(-209.83 500.92) rotate(-45)"/></g></svg>